<?xml version="1.0" standalone="no"?>
<!DOCTYPE svg PUBLIC "-//W3C//DTD SVG 20010904//EN"
 "http://www.w3.org/TR/2001/REC-SVG-20010904/DTD/svg10.dtd">
<svg version="1.0" xmlns="http://www.w3.org/2000/svg"
 width="100.000000pt" height="100.000000pt" viewBox="0 0 100.000000 100.000000"
 preserveAspectRatio="xMidYMid meet">
<metadata>
Created by potrace 1.14, written by Peter Selinger 2001-2017
</metadata>
<g transform="translate(0.000000,100.000000) scale(0.100000,-0.100000)"
fill="#000000" stroke="none">
<path d="M497 808 c-71 -15 -130 -58 -162 -119 -10 -19 -26 -29 -52 -34 -21
-3 -52 -16 -70 -28 -35 -24 -83 -92 -83 -118 0 -10 -13 -26 -29 -35 -64 -38
-89 -135 -53 -204 24 -44 104 -100 133 -93 12 4 25 0 30 -8 5 -8 9 -9 9 -3 0
16 110 16 110 0 0 -8 2 -8 8 0 10 15 112 15 112 0 0 -7 3 -7 8 -1 11 16 44 18
53 3 7 -11 9 -11 9 1 0 11 3 11 17 0 11 -10 14 -10 9 -1 -5 8 0 12 18 12 13 0
27 -6 29 -12 4 -10 6 -9 6 1 1 11 4 11 18 0 11 -10 14 -10 9 -1 -5 8 0 12 18
12 13 0 27 -6 29 -12 4 -10 6 -9 6 1 1 11 4 11 18 0 11 -10 14 -10 9 -1 -5 8
0 12 18 12 13 0 27 -6 29 -12 4 -10 6 -9 6 1 1 11 4 11 18 0 14 -12 16 -12 8
0 -6 11 -3 13 13 9 12 -4 22 -3 22 2 0 13 48 18 61 6 9 -8 10 -8 4 2 -9 17 24
55 42 48 7 -3 15 0 19 6 4 7 3 8 -4 4 -7 -4 -12 -2 -12 3 0 6 5 11 10 11 6 0
9 3 8 7 -1 5 2 19 6 32 6 18 10 21 17 10 7 -11 9 -11 9 3 0 9 -6 19 -12 21
-10 4 -10 6 0 6 7 1 10 6 6 12 -3 6 0 15 7 20 9 5 9 9 2 9 -6 0 -10 13 -9 30
1 17 -4 36 -11 42 -7 6 -13 16 -13 23 0 20 -73 81 -114 96 -23 8 -35 18 -32
26 3 7 0 13 -5 13 -6 0 -9 9 -6 20 3 11 2 20 -3 20 -4 0 -10 10 -14 23 -8 33
-75 97 -124 119 -49 22 -102 28 -155 16z"/>
</g>
</svg>
